# xmcd
#
# Track frame offsets: 
#        150
#        23122
#        37987
#        64597
#        80847
#        94312
#        108825
#        127130
#        146475
#        160242
#        177900
#        197940
#        213930
#        229040
#
# Disc length: 3355 seconds
#
# Revision: 1
# Processed by: cddbd v1.5.2PL0 Copyright (c) Steve Scherf et al.
# Submitted via: ExactAudioCopy v0.99pb5
#
DISCID=c10d190e
DTITLE=Magic Slim and The Teardrops - Grand Slam
DYEAR=1982
DGENRE=Blues
TTITLE0=Early Every Morning
TTITLE1=She Belongs To Me
TTITLE2=Just To Be With You
TTITLE3=Walking The Dog
TTITLE4=Slammin'
TTITLE5=Rough Dried Woman
TTITLE6=Fannie Mae
TTITLE7=Give Me Back My Wig
TTITLE8=Scuffling
TTITLE9=Make My Dreams Come True
TTITLE10=1823 South Michigan Avenue
TTITLE11=Wonder Why
TTITLE12=If You Need Me
TTITLE13=Teardrop
EXTD=YEAR: 2000
EXTT0=
EXTT1=
EXTT2=
EXTT3=
EXTT4=
EXTT5=
EXTT6=
EXTT7=
EXTT8=
EXTT9=
EXTT10=
EXTT11=
EXTT12=
EXTT13=
PLAYORDER=
